<mxfile host="app.diagrams.net" agent="Mozilla/5.0 (Windows NT 10.0; Win64; x64) AppleWebKit/537.36 (KHTML, like Gecko) Chrome/129.0.0.0 Safari/537.36" version="24.7.17">
  <diagram name="Page-1" id="7sDUlBEOHHGm_BFJeLby">
    <mxGraphModel dx="1264" dy="674" grid="1" gridSize="10" guides="1" tooltips="1" connect="1" arrows="1" fold="1" page="1" pageScale="1" pageWidth="850" pageHeight="1100" math="0" shadow="0">
      <root>
        <mxCell id="0" />
        <mxCell id="1" parent="0" />
        <mxCell id="ghssOqhI3Z_bjKjekTS5-14" value="" style="rounded=0;whiteSpace=wrap;html=1;" parent="1" vertex="1">
          <mxGeometry x="30" y="20" width="780" height="430" as="geometry" />
        </mxCell>
        <mxCell id="ghssOqhI3Z_bjKjekTS5-2" value="" style="rounded=0;whiteSpace=wrap;html=1;" parent="1" vertex="1">
          <mxGeometry x="80" y="164" width="120" height="170" as="geometry" />
        </mxCell>
        <mxCell id="ghssOqhI3Z_bjKjekTS5-1" value="" style="sketch=0;aspect=fixed;pointerEvents=1;shadow=0;dashed=0;html=1;strokeColor=none;labelPosition=center;verticalLabelPosition=bottom;verticalAlign=top;align=center;fillColor=#00188D;shape=mxgraph.azure.file" parent="1" vertex="1">
          <mxGeometry x="118.25" y="224" width="47" height="50" as="geometry" />
        </mxCell>
        <mxCell id="ghssOqhI3Z_bjKjekTS5-3" value="Data Source" style="text;html=1;align=center;verticalAlign=middle;whiteSpace=wrap;rounded=0;" parent="1" vertex="1">
          <mxGeometry x="103.5" y="170" width="76.5" height="30" as="geometry" />
        </mxCell>
        <mxCell id="ghssOqhI3Z_bjKjekTS5-5" value="Csv file" style="text;html=1;align=center;verticalAlign=middle;whiteSpace=wrap;rounded=0;" parent="1" vertex="1">
          <mxGeometry x="110" y="290" width="60" height="30" as="geometry" />
        </mxCell>
        <mxCell id="ghssOqhI3Z_bjKjekTS5-6" value="" style="image;aspect=fixed;html=1;points=[];align=center;fontSize=12;image=img/lib/azure2/analytics/Data_Lake_Store_Gen1.svg;" parent="1" vertex="1">
          <mxGeometry x="700" y="208" width="64" height="52" as="geometry" />
        </mxCell>
        <mxCell id="ghssOqhI3Z_bjKjekTS5-7" value="AZDLG 2" style="text;html=1;align=center;verticalAlign=middle;whiteSpace=wrap;rounded=0;" parent="1" vertex="1">
          <mxGeometry x="542" y="260" width="60" height="30" as="geometry" />
        </mxCell>
        <mxCell id="ghssOqhI3Z_bjKjekTS5-8" value="" style="strokeColor=#dddddd;shadow=1;strokeWidth=1;rounded=1;absoluteArcSize=1;arcSize=2;" parent="1" vertex="1">
          <mxGeometry x="330" y="176" width="110" height="44" as="geometry" />
        </mxCell>
        <mxCell id="ghssOqhI3Z_bjKjekTS5-9" value="Scheduled&#xa;Tasks" style="sketch=0;dashed=0;connectable=0;html=1;fillColor=#757575;strokeColor=none;shape=mxgraph.gcp2.scheduled_tasks;part=1;labelPosition=right;verticalLabelPosition=middle;align=left;verticalAlign=middle;spacingLeft=5;fontSize=12;" parent="ghssOqhI3Z_bjKjekTS5-8" vertex="1">
          <mxGeometry y="0.5" width="32" height="32" relative="1" as="geometry">
            <mxPoint x="5" y="-16" as="offset" />
          </mxGeometry>
        </mxCell>
        <mxCell id="ghssOqhI3Z_bjKjekTS5-10" value="" style="endArrow=classic;html=1;rounded=0;exitX=1;exitY=0.5;exitDx=0;exitDy=0;entryX=0;entryY=0.788;entryDx=0;entryDy=0;entryPerimeter=0;" parent="1" source="ghssOqhI3Z_bjKjekTS5-2" target="ghssOqhI3Z_bjKjekTS5-6" edge="1">
          <mxGeometry width="50" height="50" relative="1" as="geometry">
            <mxPoint x="400" y="370" as="sourcePoint" />
            <mxPoint x="450" y="320" as="targetPoint" />
          </mxGeometry>
        </mxCell>
        <mxCell id="ghssOqhI3Z_bjKjekTS5-12" value="" style="shape=image;verticalLabelPosition=bottom;labelBackgroundColor=default;verticalAlign=top;aspect=fixed;imageAspect=0;image=https://cdn-icons-png.flaticon.com/128/3098/3098090.png;" parent="1" vertex="1">
          <mxGeometry x="360" y="260" width="50" height="50" as="geometry" />
        </mxCell>
        <mxCell id="ghssOqhI3Z_bjKjekTS5-13" value="Data Architecture" style="text;html=1;align=center;verticalAlign=middle;whiteSpace=wrap;rounded=0;fontSize=23;fontStyle=1" parent="1" vertex="1">
          <mxGeometry x="280" y="80" width="230" height="30" as="geometry" />
        </mxCell>
      </root>
    </mxGraphModel>
  </diagram>
</mxfile>
